<?xml version="1.0" encoding="iso-8859-1"?>
<!-- Generator: Adobe Illustrator 18.1.1, SVG Export Plug-In . SVG Version: 6.00 Build 0)  -->
<svg version="1.1" id="Capa_1" xmlns="http://www.w3.org/2000/svg" xmlns:xlink="http://www.w3.org/1999/xlink" x="0px" y="0px"
	 viewBox="0 0 14 14" style="enable-background:new 0 0 14 14;" xml:space="preserve">
<g>
	<path style="fill:#030104;" d="M1,9h3v1H1V9z"/>
	<path style="fill:#030104;" d="M12.004,0H2.996C2.445,0,2,0.45,2,1.007V3h2c0.557,0,1,0.447,1,0.999v1.002C5,5.557,4.553,6,4,6H2v2
		h2c0.557,0,1,0.447,1,0.999v1.002C5,10.558,4.553,11,4,11H2v1.993C2,13.549,2.445,14,2.996,14h9.008C12.555,14,13,13.55,13,12.993
		V1.007C13,0.451,12.555,0,12.004,0z"/>
	<path style="fill:#030104;" d="M1,4h3v1H1V4z"/>
</g>
<g>
</g>
<g>
</g>
<g>
</g>
<g>
</g>
<g>
</g>
<g>
</g>
<g>
</g>
<g>
</g>
<g>
</g>
<g>
</g>
<g>
</g>
<g>
</g>
<g>
</g>
<g>
</g>
<g>
</g>
</svg>
